<svg width="32" height="32" viewBox="0 0 32 32" fill="none" xmlns="http://www.w3.org/2000/svg">
  <!-- 外側のリングのドット（約18個） -->
  <circle cx="16" cy="3" r="1.2" fill="#3B82F6"/>
  <circle cx="20.5" cy="4.5" r="1.2" fill="#3B82F6"/>
  <circle cx="24.5" cy="7.5" r="1.2" fill="#3B82F6"/>
  <circle cx="27.5" cy="11.5" r="1.2" fill="#3B82F6"/>
  <circle cx="29" cy="16" r="1.2" fill="#3B82F6"/>
  <circle cx="27.5" cy="20.5" r="1.2" fill="#3B82F6"/>
  <circle cx="24.5" cy="24.5" r="1.2" fill="#3B82F6"/>
  <circle cx="20.5" cy="27.5" r="1.2" fill="#3B82F6"/>
  <circle cx="16" cy="29" r="1.2" fill="#3B82F6"/>
  <circle cx="11.5" cy="27.5" r="1.2" fill="#3B82F6"/>
  <circle cx="7.5" cy="24.5" r="1.2" fill="#3B82F6"/>
  <circle cx="4.5" cy="20.5" r="1.2" fill="#3B82F6"/>
  <circle cx="3" cy="16" r="1.2" fill="#3B82F6"/>
  <circle cx="4.5" cy="11.5" r="1.2" fill="#3B82F6"/>
  <circle cx="7.5" cy="7.5" r="1.2" fill="#3B82F6"/>
  <circle cx="11.5" cy="4.5" r="1.2" fill="#3B82F6"/>
  <circle cx="13.5" cy="5.5" r="1.2" fill="#3B82F6"/>
  <circle cx="18.5" cy="5.5" r="1.2" fill="#3B82F6"/>
  
  <!-- 中央の3つの大きな円（三角形配置） -->
  <circle cx="11" cy="11" r="3.5" fill="#3B82F6"/>
  <circle cx="21" cy="11" r="3.5" fill="#3B82F6"/>
  <circle cx="16" cy="19" r="3.5" fill="#3B82F6"/>
  
  <!-- 接続部分（カプセル型の接続） -->
  <!-- 上左と上右の接続 -->
  <path d="M 11 11 Q 16 9 21 11" stroke="#3B82F6" stroke-width="2.5" fill="none" stroke-linecap="round"/>
  <!-- 上左と下中央の接続 -->
  <path d="M 11 11 Q 13.5 15 16 19" stroke="#3B82F6" stroke-width="2.5" fill="none" stroke-linecap="round"/>
  <!-- 上右と下中央の接続 -->
  <path d="M 21 11 Q 18.5 15 16 19" stroke="#3B82F6" stroke-width="2.5" fill="none" stroke-linecap="round"/>
</svg>

